<svg width="21" height="21" viewBox="0 0 21 21" fill="none" xmlns="http://www.w3.org/2000/svg">
<path d="M12.812 9.51562H11.1902V16.0781H9.56843V11.1562H7.94666V16.0781H6.32489V12.7969H4.70312V16.0781H3.08136V17.7188H14.2716V16.0781H12.812V9.51562ZM3.24353 8.20312H14.2716V3.28125H3.24353V8.20312ZM4.8653 4.92188H12.6498V6.5625H4.8653V4.92188ZM18.326 11.1562H17.5151V2.46094C17.5151 1.10398 16.4238 0 15.0824 0H2.43265C1.09129 0 0 1.10398 0 2.46094V18.5391C0 19.896 1.09129 21 2.43265 21H18.326C19.6673 21 20.7586 19.896 20.7586 18.5391V13.6172C20.7586 12.2602 19.6673 11.1562 18.326 11.1562ZM2.43265 19.3594C1.98553 19.3594 1.62177 18.9914 1.62177 18.5391V2.46094C1.62177 2.00862 1.98553 1.64062 2.43265 1.64062H15.0824C15.5296 1.64062 15.8933 2.00862 15.8933 2.46094V18.5391C15.8933 18.8266 15.9428 19.1026 16.0328 19.3594H2.43265ZM19.1369 18.5391C19.1369 18.9914 18.7731 19.3594 18.326 19.3594C17.8788 19.3594 17.5151 18.9914 17.5151 18.5391V13.6172V12.7969H18.326C18.7731 12.7969 19.1369 13.1649 19.1369 13.6172V18.5391Z" fill="#A2A2A2"/>
</svg>
