<svg width="20" height="19" viewBox="0 0 20 19" fill="none" xmlns="http://www.w3.org/2000/svg">
<path d="M18.4135 12.061C17.7507 11.5077 16.9469 11.0296 16.0242 10.6401C15.6297 10.4737 15.1682 10.6424 14.993 11.017C14.8178 11.3916 14.9954 11.8301 15.3897 11.9966C16.1678 12.3251 16.8382 12.7218 17.3822 13.176C18.0528 13.7358 18.4375 14.5464 18.4375 15.4004V16.7734C18.4375 17.1827 18.087 17.5156 17.6562 17.5156H2.34375C1.91299 17.5156 1.5625 17.1827 1.5625 16.7734V15.4004C1.5625 14.5464 1.94717 13.7358 2.6178 13.176C3.40714 12.517 5.70694 10.9844 10 10.9844C13.1877 10.9844 15.7812 8.52052 15.7812 5.49219C15.7812 2.46386 13.1877 0 10 0C6.81229 0 4.21875 2.46386 4.21875 5.49219C4.21875 7.26257 5.10529 8.83971 6.47858 9.84471C3.96576 10.3695 2.40265 11.3795 1.58646 12.061C0.578308 12.9025 0 14.1195 0 15.4004V16.7734C0 18.0012 1.05133 19 2.34375 19H17.6562C18.9487 19 20 18.0012 20 16.7734V15.4004C20 14.1195 19.4217 12.9025 18.4135 12.061ZM5.78125 5.49219C5.78125 3.2823 7.6738 1.48438 10 1.48438C12.3262 1.48438 14.2188 3.2823 14.2188 5.49219C14.2188 7.70208 12.3262 9.5 10 9.5C7.6738 9.5 5.78125 7.70208 5.78125 5.49219Z" fill="#A2A2A2"/>
</svg>
