<svg width="27" height="27" viewBox="0 0 27 27" fill="none" xmlns="http://www.w3.org/2000/svg">
<path d="M13.5 0C6.04487 0 0 6.04487 0 13.5C0 20.9551 6.04487 27 13.5 27C20.9551 27 27 20.9551 27 13.5C27 6.04487 20.9551 0 13.5 0ZM13.5 24.7098C7.31049 24.7098 2.29018 19.6895 2.29018 13.5C2.29018 10.8181 3.23337 8.35313 4.80636 6.42455L20.5754 22.1936C18.6469 23.7666 16.1819 24.7098 13.5 24.7098ZM22.1936 20.5754L6.42455 4.80636C8.35313 3.23337 10.8181 2.29018 13.5 2.29018C19.6895 2.29018 24.7098 7.31049 24.7098 13.5C24.7098 16.1819 23.7666 18.6469 22.1936 20.5754Z" fill="#FF0000"/>
</svg>
