<svg width="24" height="24" viewBox="0 0 24 24" fill="none" xmlns="http://www.w3.org/2000/svg">
<path d="M22.3148 10.464C22.223 7.84612 21.1628 5.39812 19.3013 3.53662C17.3502 1.58512 14.7571 0.510742 12.0001 0.510742C6.43171 0.510742 1.88184 4.94287 1.68571 10.464C0.835961 10.8416 0.241211 11.6921 0.241211 12.6806V15.4039C0.241211 16.7411 1.32909 17.8294 2.66671 17.8294C3.53221 17.8294 4.23609 17.1255 4.23609 16.26V11.8241C4.23609 11.0115 3.61284 10.3489 2.82046 10.2701C3.11296 5.45999 7.11721 1.63574 12.0001 1.63574C14.4571 1.63574 16.7675 2.59349 18.5063 4.33237C20.1031 5.92912 21.0376 8.01037 21.1782 10.2705C20.3866 10.35 19.7645 11.0122 19.7645 11.8241V16.2596C19.7645 17.079 20.3975 17.7457 21.1992 17.8151V18.936C21.1992 20.1982 20.1721 21.225 18.9098 21.225H17.2145C17.1312 20.9872 17.0007 20.7675 16.8177 20.5852C16.4971 20.2631 16.0696 20.0857 15.6143 20.0857H13.8668C13.616 20.0857 13.3752 20.139 13.1547 20.2417C12.5532 20.5181 12.1647 21.1249 12.1647 21.7875C12.1647 22.2427 12.3421 22.6702 12.6635 22.9901C12.9848 23.3122 13.4123 23.4896 13.8668 23.4896H15.6143C16.3388 23.4896 16.9775 23.0212 17.2156 22.35H18.9098C20.7927 22.35 22.3242 20.8185 22.3242 18.936V17.6149C23.1687 17.235 23.759 16.3875 23.759 15.4031V12.6799C23.759 11.6921 23.1642 10.8416 22.3148 10.464ZM3.11071 11.8241V16.2596C3.11071 16.5045 2.91159 16.704 2.66634 16.704C1.94934 16.704 1.36584 16.1205 1.36584 15.4035V12.6802C1.36584 11.9629 1.94934 11.3797 2.66634 11.3797C2.91159 11.3797 3.11071 11.5792 3.11071 11.8241ZM16.1787 21.9082C16.1228 22.173 15.8851 22.3654 15.614 22.3654H13.8665C13.7127 22.3654 13.5683 22.3054 13.4581 22.1951C13.3493 22.0867 13.2893 21.942 13.2893 21.7882C13.2893 21.5636 13.421 21.3585 13.6272 21.2636C13.7007 21.2291 13.7813 21.2115 13.8665 21.2115H15.614C15.7677 21.2115 15.9121 21.2711 16.022 21.3814C16.1307 21.4897 16.1907 21.6345 16.1907 21.7882C16.1911 21.8295 16.1866 21.8707 16.1787 21.9082ZM22.634 15.4035C22.634 16.1205 22.0505 16.704 21.3335 16.704C21.0886 16.704 20.8891 16.5049 20.8891 16.2596V11.8241C20.8891 11.5792 21.0882 11.3797 21.3335 11.3797C22.0505 11.3797 22.634 11.9632 22.634 12.6802V15.4035Z" fill="#202223"/>
<path d="M15.6424 15.5973C16.9567 15.5973 18.0259 14.5278 18.0259 13.2138V8.35713C18.0259 7.72188 17.7776 7.12338 17.3269 6.67263C16.8761 6.22188 16.278 5.97363 15.6424 5.97363H8.35762C7.04325 5.97363 5.97412 7.04276 5.97412 8.35713V13.2138C5.97412 14.5281 7.04325 15.5973 8.35762 15.5973H8.40225V16.8558C8.40225 17.3358 8.68837 17.7618 9.13087 17.9414C9.27375 17.9988 9.42225 18.0273 9.56925 18.0273C9.87562 18.0273 10.1741 17.9058 10.3927 17.6796L12.4864 15.5973H15.6424ZM11.8582 14.6358L9.5925 16.8891C9.58237 16.8996 9.57487 16.9075 9.5535 16.8981C9.52762 16.8876 9.52762 16.8708 9.52762 16.8558V15.0348C9.52762 14.7243 9.276 14.4723 8.96512 14.4723H8.358C7.66387 14.4723 7.0995 13.9075 7.0995 13.2138V8.35713C7.0995 7.66301 7.66387 7.09863 8.358 7.09863H15.6427C15.978 7.09863 16.2934 7.22988 16.5319 7.46801C16.7704 7.70651 16.9012 8.02226 16.9012 8.35713V13.2138C16.9012 13.9079 16.3365 14.4723 15.6427 14.4723H12.255C12.1061 14.4723 11.9636 14.5311 11.8582 14.6358Z" fill="#202223"/>
<path d="M9.26737 10.0459C8.80987 10.0459 8.4375 10.4186 8.4375 10.8758C8.4375 11.3329 8.81025 11.7056 9.26737 11.7056C9.72525 11.7056 10.098 11.3329 10.098 10.8758C10.098 10.4186 9.72562 10.0459 9.26737 10.0459Z" fill="#202223"/>
<path d="M11.9998 10.0459C11.5423 10.0459 11.1699 10.4186 11.1699 10.8758C11.1699 11.3329 11.5427 11.7056 11.9998 11.7056C12.458 11.7056 12.8304 11.3329 12.8304 10.8758C12.8304 10.4186 12.458 10.0459 11.9998 10.0459Z" fill="#202223"/>
<path d="M14.7317 10.0459C14.2742 10.0459 13.9019 10.4186 13.9019 10.8758C13.9019 11.3329 14.2746 11.7056 14.7317 11.7056C15.1896 11.7056 15.5624 11.3329 15.5624 10.8758C15.5624 10.4186 15.1896 10.0459 14.7317 10.0459Z" fill="#202223"/>
</svg>
