<svg width="20" height="19" viewBox="0 0 20 19" fill="none" xmlns="http://www.w3.org/2000/svg">
<path d="M6.72385 9.16603C5.45173 9.16603 4.41677 8.16715 4.41677 6.93936C4.41677 5.71157 5.45173 4.71268 6.72385 4.71268C7.99598 4.71268 9.03094 5.71157 9.03094 6.93936C9.03094 8.16715 7.99598 9.16603 6.72385 9.16603ZM6.72385 6.19713C6.29981 6.19713 5.95483 6.5301 5.95483 6.93936C5.95483 7.34862 6.29981 7.68158 6.72385 7.68158C7.1479 7.68158 7.49288 7.34862 7.49288 6.93936C7.49288 6.5301 7.14793 6.19713 6.72385 6.19713ZM13.0683 14.3616C11.7962 14.3616 10.7612 13.3627 10.7612 12.1349C10.7612 10.9071 11.7962 9.90826 13.0683 9.90826C14.3405 9.90826 15.3754 10.9071 15.3754 12.1349C15.3754 13.3627 14.3405 14.3616 13.0683 14.3616ZM13.0683 11.3927C12.6443 11.3927 12.2993 11.7257 12.2993 12.1349C12.2993 12.5442 12.6443 12.8772 13.0683 12.8772C13.4924 12.8772 13.8374 12.5442 13.8374 12.1349C13.8374 11.7257 13.4924 11.3927 13.0683 11.3927ZM8.29536 13.9905L13.2837 5.0838H11.5353L6.54702 13.9905H8.29536ZM7.78054 19C7.61789 19 7.45462 18.9797 7.29497 18.9384C6.78503 18.8065 6.35357 18.4713 6.11113 18.0187L5.6018 17.0678C5.54051 16.9534 5.41516 16.8834 5.28158 16.8893L4.17368 16.9391C3.64601 16.9629 3.12976 16.7697 2.75648 16.4094C2.38319 16.0491 2.18317 15.5506 2.2077 15.0416L2.25926 13.9723C2.26545 13.8437 2.19286 13.7223 2.07435 13.6632L1.08907 13.1716C0.620119 12.9376 0.272788 12.5212 0.13617 12.029C-0.000486106 11.5368 0.0845684 11.0086 0.369493 10.5796L0.968066 9.67847C1.04005 9.57006 1.04005 9.42997 0.968066 9.32157L0.369416 8.42043C0.0844915 7.9915 -0.000563011 7.46326 0.136093 6.97109C0.272711 6.47892 0.620042 6.06246 1.089 5.82843L2.07427 5.33682C2.19278 5.2777 2.26538 5.15635 2.25919 5.02772L2.20762 3.95843C2.18309 3.44945 2.38312 2.9509 2.7564 2.59062C3.12969 2.23035 3.64636 2.03722 4.17357 2.06097L5.2815 2.1107C5.41431 2.11682 5.54044 2.04665 5.60173 1.93227L6.11105 0.981331C6.35349 0.528722 6.78495 0.193496 7.2949 0.061603C7.80491 -0.0702904 8.35223 0.0117997 8.79665 0.286794L9.73037 0.864505C9.84272 0.934015 9.9878 0.934052 10.1002 0.864505L11.0339 0.286794C11.4783 0.0117997 12.0256 -0.0702904 12.5356 0.061603C13.0456 0.193496 13.477 0.528722 13.7195 0.981331L14.2288 1.93223C14.2901 2.04665 14.4151 2.11671 14.549 2.1107L15.6569 2.06097C16.185 2.03737 16.7009 2.23035 17.0741 2.59062C17.4474 2.9509 17.6474 3.44945 17.6229 3.95843L17.5713 5.02776C17.5651 5.15635 17.6377 5.2777 17.7562 5.33682L18.7415 5.8284C19.2105 6.06242 19.5578 6.47888 19.6944 6.97105C19.8311 7.46322 19.746 7.99146 19.4611 8.42039L18.8625 9.32157C18.7906 9.42997 18.7906 9.57006 18.8625 9.67847L19.4611 10.5796C19.746 11.0086 19.8311 11.5368 19.6944 12.029C19.5578 12.5212 19.2105 12.9376 18.7415 13.1716L17.7562 13.6633C17.6377 13.7224 17.5651 13.8437 17.5713 13.9724L17.6229 15.0416C17.6474 15.5506 17.4474 16.0492 17.0741 16.4094C16.7008 16.7697 16.1841 16.9629 15.657 16.9391L14.549 16.8894C14.4162 16.8835 14.2901 16.9534 14.2288 17.0678L13.7195 18.0187C13.477 18.4713 13.0456 18.8066 12.5356 18.9385C12.0256 19.0704 11.4783 18.9882 11.0339 18.7133L10.1002 18.1356C9.9878 18.0661 9.84272 18.066 9.73037 18.1356L8.79665 18.7133C8.49143 18.9021 8.13748 19 7.78054 19ZM5.29696 15.4046C5.99593 15.4046 6.64514 15.7831 6.9681 16.3862L7.47742 17.337C7.53787 17.4499 7.63846 17.4905 7.69306 17.5046C7.7477 17.5187 7.85579 17.5321 7.9666 17.4636L8.90032 16.8858C9.51688 16.5044 10.3137 16.5043 10.9303 16.8858L11.864 17.4636C11.9748 17.5321 12.0829 17.5187 12.1375 17.5046C12.1921 17.4905 12.2927 17.4499 12.3532 17.337L12.8625 16.3861C13.1988 15.7582 13.8892 15.3737 14.6205 15.4065L15.7284 15.4562C15.8592 15.4622 15.9466 15.3983 15.9866 15.3598C16.0266 15.3212 16.0927 15.2375 16.0866 15.1106L16.035 14.0413C16.001 13.3351 16.3995 12.6692 17.05 12.3445L18.0353 11.853C18.1522 11.7946 18.1942 11.6975 18.2089 11.6448C18.2235 11.5921 18.2374 11.4878 18.1664 11.3808L17.5678 10.4796C17.1725 9.88454 17.1725 9.11549 17.5678 8.52045L18.1664 7.61927C18.2374 7.51228 18.2235 7.40793 18.2089 7.35526C18.1942 7.30257 18.1522 7.20545 18.0353 7.14711L17.05 6.65553C16.3994 6.33092 16.001 5.66496 16.035 4.95881L16.0866 3.88948C16.0927 3.76256 16.0266 3.67891 15.9866 3.64035C15.9466 3.60176 15.8606 3.53819 15.7284 3.54386L14.6205 3.59359C13.8889 3.62644 13.1988 3.24193 12.8625 2.61397L12.3533 1.66307C12.2928 1.55017 12.1922 1.50965 12.1376 1.49551C12.0829 1.48137 11.9749 1.46793 11.8641 1.53652L10.9303 2.11426C10.3138 2.49577 9.51692 2.49577 8.90036 2.11426L7.96664 1.53655C7.85582 1.46797 7.74774 1.48141 7.6931 1.49554C7.6385 1.50965 7.53791 1.55021 7.47746 1.66307L6.96813 2.614C6.6318 3.24193 5.94171 3.62618 5.2101 3.59359L4.1022 3.54386C3.97139 3.53785 3.88403 3.60179 3.84404 3.64035C3.80409 3.67891 3.73795 3.76256 3.74406 3.88952L3.79563 4.95881C3.82962 5.66496 3.43118 6.33096 2.78066 6.65557L1.79539 7.14714C1.67842 7.20548 1.63643 7.3026 1.62178 7.3553C1.60717 7.40796 1.59325 7.51232 1.66427 7.61931L2.26284 8.52048C2.65812 9.11556 2.65812 9.88462 2.26284 10.4797L1.66427 11.3808C1.59321 11.4878 1.60717 11.5922 1.62178 11.6448C1.63643 11.6975 1.67842 11.7947 1.79539 11.853L2.78066 12.3446C3.43122 12.6692 3.82962 13.3351 3.79563 14.0413L3.74406 15.1106C3.73795 15.2375 3.80409 15.3212 3.84404 15.3598C3.88399 15.3984 3.9702 15.4619 4.10224 15.4562L5.21014 15.4065C5.23909 15.4052 5.26808 15.4046 5.29696 15.4046Z" fill="#A2A2A2"/>
</svg>
