<svg width="20" height="19" viewBox="0 0 20 19" fill="none" xmlns="http://www.w3.org/2000/svg">
<path d="M18.4375 12.3203V2.96875C18.4375 2.15027 17.7366 1.48438 16.875 1.48438H3.125C2.26344 1.48438 1.5625 2.15027 1.5625 2.96875V16.0312C1.5625 16.8497 2.26344 17.5156 3.125 17.5156H11.2109V11.0586H9.45312C9.02164 11.0586 8.67188 10.7263 8.67188 10.3164C8.67188 9.9065 9.02164 9.57422 9.45312 9.57422H11.2109V7.5332C11.2109 5.89623 12.6128 4.56445 14.3359 4.56445H14.7266C15.158 4.56445 15.5078 4.89673 15.5078 5.30664C15.5078 5.71655 15.158 6.04883 14.7266 6.04883H14.3359C13.4744 6.04883 12.7734 6.71472 12.7734 7.5332V9.57422H14.5312C14.9627 9.57422 15.3125 9.9065 15.3125 10.3164C15.3125 10.7263 14.9627 11.0586 14.5312 11.0586H12.7734V17.5156H16.875C17.7366 17.5156 18.4375 16.8497 18.4375 16.0312C18.4375 15.6213 18.7873 15.2891 19.2188 15.2891C19.6502 15.2891 20 15.6213 20 16.0312C20 17.6682 18.5981 19 16.875 19H3.125C1.40188 19 0 17.6682 0 16.0312V2.96875C0 1.33178 1.40188 0 3.125 0H16.875C18.5981 0 20 1.33178 20 2.96875V12.3203C20 12.7302 19.6502 13.0625 19.2188 13.0625C18.7873 13.0625 18.4375 12.7302 18.4375 12.3203Z" fill="#A2A2A2"/>
</svg>
