<svg width="24" height="24" viewBox="0 0 24 24" fill="none" xmlns="http://www.w3.org/2000/svg">
<path fill-rule="evenodd" clip-rule="evenodd" d="M22.5 17.7224C22.5 20.361 20.361 22.5 17.7224 22.5H5.77761C3.13901 22.5 1 20.361 1 17.7224V5.77761C1 3.13901 3.13901 1 5.77761 1H17.7224C20.361 1 22.5 3.13901 22.5 5.77761V17.7224Z" stroke="#353535" stroke-width="1.5" stroke-linecap="round" stroke-linejoin="round"/>
<path fill-rule="evenodd" clip-rule="evenodd" d="M11.3705 9.08948C11.9674 8.16962 11.8525 6.97199 11.091 6.17648C10.3477 5.40001 9.13199 5.27775 8.24226 5.88998C7.86756 6.1481 7.57867 6.50798 7.41143 6.92498C7.24032 7.34865 7.19559 7.811 7.28243 8.25848C7.36644 8.70202 7.57974 9.11245 7.89672 9.44048C8.20725 9.76044 8.61 9.98067 9.05158 10.072C9.4897 10.1608 9.94524 10.1147 10.3554 9.93998C10.7731 9.76186 11.1267 9.46563 11.3705 9.08948V9.08948Z" stroke="#353535" stroke-width="1.5" stroke-linecap="round" stroke-linejoin="round"/>
<path fill-rule="evenodd" clip-rule="evenodd" d="M12.1304 16.474C11.5335 15.5541 11.6484 14.3565 12.4099 13.561C13.1532 12.7845 14.3689 12.6623 15.2586 13.2745C15.6333 13.5326 15.9222 13.8925 16.0894 14.3095C16.2606 14.7332 16.3053 15.1955 16.2184 15.643C16.1344 16.0865 15.9211 16.497 15.6042 16.825C15.2936 17.145 14.8909 17.3652 14.4493 17.4565C14.0112 17.5453 13.5556 17.4992 13.1455 17.3245C12.7277 17.1464 12.3742 16.8502 12.1304 16.474Z" stroke="#353535" stroke-width="1.5" stroke-linecap="round" stroke-linejoin="round"/>
<path d="M11.7493 7.05713C11.3351 7.05713 10.9993 7.39292 10.9993 7.80713C10.9993 8.22134 11.3351 8.55713 11.7493 8.55713V7.05713ZM17.8922 8.55713C18.3064 8.55713 18.6422 8.22134 18.6422 7.80713C18.6422 7.39292 18.3064 7.05713 17.8922 7.05713V8.55713ZM7.23584 8.55713C7.65005 8.55713 7.98584 8.22134 7.98584 7.80713C7.98584 7.39292 7.65005 7.05713 7.23584 7.05713V8.55713ZM5.60645 7.05713C5.19223 7.05713 4.85645 7.39292 4.85645 7.80713C4.85645 8.22134 5.19223 8.55713 5.60645 8.55713V7.05713ZM11.7493 15.9431C12.1635 15.9431 12.4993 15.6073 12.4993 15.1931C12.4993 14.7789 12.1635 14.4431 11.7493 14.4431V15.9431ZM5.60645 14.4431C5.19223 14.4431 4.85645 14.7789 4.85645 15.1931C4.85645 15.6073 5.19223 15.9431 5.60645 15.9431V14.4431ZM16.2625 14.4431C15.8483 14.4431 15.5125 14.7789 15.5125 15.1931C15.5125 15.6073 15.8483 15.9431 16.2625 15.9431V14.4431ZM17.8919 15.9431C18.3061 15.9431 18.6419 15.6073 18.6419 15.1931C18.6419 14.7789 18.3061 14.4431 17.8919 14.4431V15.9431ZM11.7493 8.55713H17.8922V7.05713H11.7493V8.55713ZM7.23584 7.05713H5.60645V8.55713H7.23584V7.05713ZM11.7493 14.4431H5.60645V15.9431H11.7493V14.4431ZM16.2625 15.9431H17.8919V14.4431H16.2625V15.9431Z" fill="#353535"/>
</svg>
