<svg width="24" height="24" viewBox="0 0 24 24" fill="none" xmlns="http://www.w3.org/2000/svg">
<mask id="mask0_1088_10207" style="mask-type:alpha" maskUnits="userSpaceOnUse" x="0" y="0" width="24" height="24">
<rect width="24" height="24" fill="black"/>
</mask>
<g mask="url(#mask0_1088_10207)">
</g>
<g clip-path="url(#clip0_1088_10207)">
<path d="M16.674 20.7471C16.4488 20.7471 16.2298 20.6304 16.1089 20.4214C15.9285 20.1096 16.0351 19.7107 16.3469 19.5303C18.4841 18.2941 19.9982 16.2137 20.5009 13.8227C20.5014 13.8205 20.5018 13.8184 20.5023 13.8163C20.6307 13.2349 20.6957 12.6239 20.6957 12.0003C20.6957 11.5571 20.6629 11.1203 20.5978 10.6959H13.3043V13.3046H17.0696C17.2846 13.3046 17.4859 13.4107 17.6075 13.5881C17.7291 13.7655 17.7555 13.9915 17.6779 14.1921C17.1793 15.4813 16.2438 16.5743 15.0438 17.27C14.7322 17.4507 14.3332 17.3445 14.1525 17.0329C13.9719 16.7213 14.078 16.3222 14.3897 16.1416C15.0431 15.7628 15.5968 15.2344 16.0056 14.609H12.6522C12.292 14.609 12 14.317 12 13.9568V10.0438C12 9.68363 12.292 9.3916 12.6522 9.3916H21.1391C21.4452 9.3916 21.71 9.60438 21.776 9.9032C21.9246 10.5768 22 11.2823 22 12.0003C22 12.7171 21.9249 13.4215 21.7768 14.0939C21.1973 16.8455 19.4564 19.2385 17 20.6594C16.8972 20.7188 16.7848 20.7471 16.674 20.7471Z" fill="#A2A2A2"/>
<path d="M17.1814 20.5037C17.1857 20.4984 17.1904 20.4934 17.1945 20.488C17.2038 20.4757 17.2122 20.4628 17.2205 20.4499C17.2236 20.4451 17.2272 20.4406 17.2301 20.4358C17.2387 20.4218 17.2462 20.4073 17.2537 20.3928C17.2558 20.3887 17.2583 20.3847 17.2603 20.3806C17.2679 20.3651 17.2744 20.3491 17.2807 20.333C17.2821 20.3296 17.2838 20.3264 17.285 20.3229C17.2915 20.3054 17.2971 20.2876 17.3021 20.2695C17.3026 20.2675 17.3035 20.2654 17.304 20.2634C17.3094 20.2433 17.3138 20.2229 17.3173 20.2024C17.3173 20.2024 17.3173 20.2024 17.3173 20.2023C17.3416 20.0579 17.3176 19.9047 17.2386 19.7681C17.2385 19.7678 17.2383 19.7676 17.2382 19.7674L15.2821 16.3794C15.2821 16.3794 15.282 16.3793 15.282 16.3791C15.2819 16.3789 15.2817 16.3787 15.2816 16.3784C15.2738 16.365 15.2651 16.3524 15.2565 16.3397C15.2528 16.3343 15.2496 16.3284 15.2457 16.3231C15.2363 16.31 15.226 16.2979 15.2158 16.2857C15.212 16.2812 15.2086 16.2764 15.2047 16.272C15.1937 16.2595 15.1818 16.2479 15.17 16.2365C15.1665 16.2331 15.1632 16.2293 15.1596 16.226C15.147 16.2143 15.1337 16.2036 15.1203 16.193C15.117 16.1904 15.114 16.1876 15.1107 16.1851C15.0971 16.1748 15.0829 16.1655 15.0687 16.1564C15.0652 16.1542 15.0619 16.1516 15.0584 16.1495C15.0445 16.141 15.0302 16.1336 15.0158 16.1262C15.0115 16.1239 15.0075 16.1213 15.0031 16.1192C14.9894 16.1126 14.9753 16.1069 14.9612 16.1012C14.9559 16.0991 14.9508 16.0965 14.9455 16.0945C14.9326 16.0897 14.9193 16.086 14.9062 16.082C14.8993 16.0799 14.8927 16.0773 14.8858 16.0755C14.8742 16.0724 14.8624 16.0703 14.8506 16.0678C14.8419 16.066 14.8333 16.0637 14.8245 16.0622C14.8145 16.0605 14.8042 16.0598 14.7941 16.0586C14.7835 16.0574 14.7729 16.0556 14.7621 16.0549C14.7536 16.0542 14.7449 16.0545 14.7363 16.0543C14.7239 16.0539 14.7116 16.0532 14.6991 16.0535C14.6918 16.0538 14.6844 16.0547 14.6771 16.0552C14.6634 16.056 14.6497 16.0566 14.636 16.0583C14.6296 16.0591 14.6233 16.0606 14.6171 16.0617C14.6024 16.0639 14.5877 16.0661 14.5731 16.0694C14.5673 16.0708 14.5615 16.0728 14.5557 16.0743C14.5408 16.0781 14.5258 16.0819 14.511 16.0869C14.5045 16.089 14.4982 16.092 14.4917 16.0944C14.4778 16.0995 14.4638 16.1045 14.4501 16.1108C14.4424 16.1142 14.435 16.1186 14.4274 16.1224C14.4153 16.1284 14.4031 16.134 14.3913 16.1408C14.3911 16.1409 14.3909 16.1411 14.3908 16.1412C14.3906 16.1413 14.3904 16.1413 14.3903 16.1414C13.6666 16.561 12.8403 16.7827 12.0008 16.7827C10.3023 16.7827 8.71549 15.8657 7.85963 14.3896C7.67896 14.078 7.2799 13.9719 6.96834 14.1525C6.65674 14.3332 6.5506 14.7322 6.73127 15.0438C7.81963 16.921 9.83881 18.0871 12.0008 18.0871C12.8504 18.0871 13.6895 17.9079 14.4613 17.5662L15.7708 19.8342C14.5986 20.3988 13.3081 20.6958 12.0008 20.6958C8.9101 20.6958 6.02467 19.0292 4.47049 16.3466C4.28998 16.0349 3.89096 15.9286 3.57924 16.1092C3.2676 16.2898 3.16131 16.6888 3.34189 17.0005C4.20615 18.4923 5.44807 19.7438 6.93334 20.6198C8.46435 21.5228 10.2167 22.0001 12.0007 22.0001C13.7552 22.0001 15.4842 21.5364 17.0007 20.6592C17.0119 20.6528 17.0222 20.6454 17.0329 20.6384C17.0407 20.6333 17.049 20.6285 17.0565 20.6231C17.0667 20.6158 17.076 20.6076 17.0856 20.5998C17.0929 20.5939 17.1006 20.5883 17.1076 20.5821C17.1176 20.5733 17.1265 20.5638 17.1358 20.5545C17.1417 20.5486 17.148 20.543 17.1537 20.5369C17.1635 20.5263 17.1724 20.515 17.1814 20.5037Z" fill="#A2A2A2"/>
<path d="M7.83504 15.0805C7.84027 15.0727 7.84594 15.0652 7.85086 15.0572C7.85699 15.0472 7.86215 15.0367 7.86773 15.0264C7.87211 15.0182 7.87699 15.0103 7.88105 15.002C7.88609 14.9916 7.89024 14.9808 7.89469 14.9701C7.89832 14.9615 7.90242 14.9531 7.9057 14.9443C7.90977 14.9335 7.91277 14.9224 7.91621 14.9114C7.91898 14.9025 7.92231 14.8938 7.92469 14.8847C7.92773 14.8733 7.92977 14.8617 7.93223 14.8502C7.9341 14.8413 7.93645 14.8326 7.93797 14.8236C7.93988 14.8121 7.94078 14.8004 7.94211 14.7887C7.94316 14.7796 7.94469 14.7705 7.94531 14.7613C7.94613 14.7497 7.94586 14.7381 7.94609 14.7266C7.94625 14.7172 7.94691 14.7078 7.94664 14.6984C7.94633 14.6868 7.945 14.6752 7.94402 14.6635C7.94328 14.6542 7.94301 14.6447 7.94184 14.6354C7.94035 14.6234 7.93777 14.6116 7.93563 14.5997C7.93398 14.5907 7.93289 14.5816 7.93086 14.5725C7.92813 14.5604 7.92426 14.5484 7.92074 14.5363C7.91828 14.5277 7.91637 14.519 7.91348 14.5104C7.90953 14.4986 7.90445 14.487 7.89977 14.4754C7.89633 14.4667 7.8934 14.458 7.88961 14.4494C7.88453 14.4382 7.87836 14.4272 7.87258 14.4162C7.86813 14.4076 7.86426 14.3989 7.85942 14.3905C7.85934 14.3903 7.85918 14.3902 7.8591 14.39C7.85898 14.3898 7.85895 14.3897 7.85879 14.3894C7.43922 13.6656 7.21738 12.8393 7.21738 11.9999C7.21738 11.1545 7.44211 10.3232 7.86734 9.59571C8.04914 9.28478 7.94438 8.88532 7.63344 8.70353C7.32254 8.52177 6.92309 8.62653 6.74125 8.93743C6.19941 9.86439 5.91305 10.9233 5.91305 11.9998C5.91305 12.8495 6.09227 13.6885 6.4341 14.4602L4.16555 15.77C3.60113 14.5993 3.30434 13.3088 3.30434 11.9998C3.30434 10.4802 3.7034 8.98411 4.45828 7.67306C4.63801 7.36091 4.53066 6.9622 4.21855 6.78243C3.90645 6.60267 3.50773 6.71005 3.32793 7.02216C2.45922 8.53091 2 10.2522 2 11.9998C2 13.7563 2.46352 15.4849 3.34043 16.999C3.34047 16.9991 3.34051 16.9992 3.34059 16.9993C3.34063 16.9994 3.3407 16.9995 3.34082 16.9996C3.3409 16.9998 3.34098 17 3.34113 17.0001C3.34395 17.005 3.34707 17.0096 3.35 17.0143C3.35488 17.0222 3.35961 17.0302 3.36477 17.0379C3.36758 17.0421 3.3707 17.0461 3.37367 17.0502C3.3793 17.0582 3.38484 17.0662 3.39074 17.0738C3.39348 17.0773 3.39645 17.0806 3.39922 17.084C3.40563 17.092 3.41199 17.0999 3.41871 17.1075C3.42191 17.1111 3.42539 17.1144 3.42867 17.1179C3.43523 17.125 3.44176 17.1321 3.44859 17.1388C3.45176 17.142 3.4552 17.1449 3.45848 17.1479C3.4657 17.1547 3.47281 17.1615 3.48031 17.1679C3.48305 17.1703 3.48598 17.1724 3.48875 17.1747C3.49691 17.1815 3.50516 17.1883 3.51363 17.1947C3.51605 17.1965 3.51859 17.1981 3.52105 17.1999C3.53004 17.2065 3.5391 17.213 3.5484 17.2191C3.55078 17.2207 3.55328 17.222 3.5557 17.2235C3.5652 17.2296 3.57477 17.2355 3.58449 17.241C3.5875 17.2427 3.59059 17.2441 3.59359 17.2457C3.60293 17.2508 3.6123 17.2558 3.6218 17.2604C3.62559 17.2623 3.62953 17.2638 3.63336 17.2656C3.64227 17.2697 3.65113 17.2738 3.6602 17.2774C3.66449 17.2792 3.66895 17.2806 3.67324 17.2823C3.68199 17.2856 3.6907 17.289 3.69961 17.292C3.70313 17.2931 3.7068 17.294 3.71035 17.2951C3.72012 17.2982 3.72992 17.3013 3.7398 17.3039C3.7443 17.305 3.74879 17.3059 3.75328 17.307C3.76238 17.3092 3.77145 17.3115 3.78066 17.3132C3.78613 17.3143 3.79176 17.315 3.79727 17.3159C3.80551 17.3173 3.81379 17.3189 3.82211 17.3199C3.82859 17.3208 3.83508 17.3212 3.8416 17.3218C3.84906 17.3226 3.85652 17.3235 3.86398 17.324C3.87797 17.3249 3.89203 17.3253 3.90613 17.3253C3.92 17.3253 3.93387 17.3249 3.94773 17.324C3.95234 17.3237 3.95695 17.323 3.96152 17.3226C3.97078 17.3218 3.98004 17.3211 3.9893 17.3199C3.99688 17.319 4.00438 17.3175 4.01191 17.3163C4.01816 17.3152 4.02449 17.3144 4.03074 17.3132C4.03859 17.3117 4.04641 17.3097 4.05422 17.3078C4.06012 17.3064 4.06609 17.3053 4.07199 17.3037C4.07961 17.3017 4.08711 17.2992 4.09469 17.2969C4.10074 17.2951 4.10688 17.2935 4.11285 17.2915C4.11945 17.2892 4.12602 17.2865 4.13258 17.2841C4.13949 17.2815 4.14641 17.2792 4.15328 17.2763C4.15867 17.2741 4.16398 17.2715 4.16934 17.2691C4.17727 17.2656 4.18523 17.2622 4.19309 17.2584C4.19781 17.256 4.20242 17.2533 4.20715 17.2508C4.21531 17.2466 4.22355 17.2424 4.2316 17.2378L7.6209 15.281C7.62102 15.2809 7.62113 15.2809 7.62125 15.2808C7.62149 15.2806 7.62172 15.2805 7.62195 15.2804C7.63211 15.2745 7.64148 15.2677 7.65117 15.2614C7.65992 15.2557 7.66902 15.2504 7.67742 15.2443C7.68664 15.2377 7.69504 15.2303 7.70383 15.2232C7.71203 15.2166 7.7207 15.2103 7.72856 15.2033C7.73695 15.1959 7.74445 15.1878 7.75242 15.1799C7.75981 15.1727 7.76758 15.1657 7.77461 15.1581C7.78238 15.1497 7.7893 15.1406 7.7966 15.1318C7.80285 15.1242 7.80957 15.117 7.81547 15.1092C7.82234 15.1001 7.82852 15.0902 7.83504 15.0805Z" fill="#A2A2A2"/>
<path d="M19.0663 4.93391C17.1695 3.04195 14.6605 2 12.0014 2C10.2127 2 8.45653 2.47961 6.92258 3.38699C5.44473 4.26121 4.20949 5.50734 3.34762 6.99172C3.34582 6.99473 3.34371 6.99742 3.34196 7.00047C3.34102 7.00211 3.34035 7.00383 3.33938 7.00547C3.33606 7.01117 3.33254 7.01668 3.3293 7.02234C3.14957 7.33449 3.25688 7.7332 3.56903 7.91297C3.62149 7.9432 3.67656 7.96457 3.73246 7.97898L6.97 9.84816C7.0727 9.90746 7.18485 9.93562 7.29547 9.93562C7.52086 9.93562 7.74012 9.81867 7.86086 9.60945C7.86196 9.60758 7.8627 9.60566 7.86379 9.60379C7.86539 9.60109 7.86719 9.59855 7.86879 9.59586C8.72633 8.12879 10.3098 7.21738 12.0014 7.21738C13.2699 7.21738 14.4699 7.71656 15.3804 8.62305C15.6352 8.8768 16.0473 8.87637 16.3016 8.62203L19.0668 5.8568C19.1892 5.73441 19.258 5.56836 19.2579 5.39523C19.2578 5.22215 19.1888 5.05617 19.0663 4.93391ZM15.8157 7.26336C14.7327 6.38848 13.4003 5.91305 12.0014 5.91305C10.059 5.91305 8.2293 6.85648 7.08903 8.41078L4.82071 7.10117C6.43469 4.74395 9.12723 3.30434 12.0014 3.30434C14.0955 3.30434 16.0834 4.04867 17.6661 5.41297L15.8157 7.26336Z" fill="#A2A2A2"/>
</g>
<defs>
<clipPath id="clip0_1088_10207">
<rect width="20" height="20" fill="white" transform="translate(2 2)"/>
</clipPath>
</defs>
</svg>
