<svg width="49" height="49" viewBox="0 0 49 49" fill="none" xmlns="http://www.w3.org/2000/svg">
<path d="M38.7917 6.125H10.2083C7.95317 6.125 6.125 7.95317 6.125 10.2083V38.7917C6.125 41.0468 7.95317 42.875 10.2083 42.875H38.7917C41.0468 42.875 42.875 41.0468 42.875 38.7917V10.2083C42.875 7.95317 41.0468 6.125 38.7917 6.125Z" stroke="black" stroke-width="2" stroke-linecap="round" stroke-linejoin="round"/>
<path d="M17.3545 20.4167C19.0459 20.4167 20.417 19.0456 20.417 17.3542C20.417 15.6629 19.0459 14.2917 17.3545 14.2917C15.6631 14.2917 14.292 15.6629 14.292 17.3542C14.292 19.0456 15.6631 20.4167 17.3545 20.4167Z" stroke="black" stroke-width="2" stroke-linecap="round" stroke-linejoin="round"/>
<path d="M42.8747 30.6251L32.6663 20.4167L10.208 42.8751" stroke="black" stroke-width="2" stroke-linecap="round" stroke-linejoin="round"/>
</svg>
