<svg width="141" height="141" viewBox="0 0 141 141" fill="none" xmlns="http://www.w3.org/2000/svg">
<path d="M110.96 17.5195H29.2C22.7493 17.5195 17.52 22.7488 17.52 29.1995V110.96C17.52 117.41 22.7493 122.64 29.2 122.64H110.96C117.411 122.64 122.64 117.41 122.64 110.96V29.1995C122.64 22.7488 117.411 17.5195 110.96 17.5195Z" stroke="#A2A2A2" stroke-width="5" stroke-linecap="round" stroke-linejoin="round"/>
<path d="M49.6399 58.3989C54.4779 58.3989 58.3999 54.4769 58.3999 49.6389C58.3999 44.8009 54.4779 40.8789 49.6399 40.8789C44.8019 40.8789 40.8799 44.8009 40.8799 49.6389C40.8799 54.4769 44.8019 58.3989 49.6399 58.3989Z" stroke="#A2A2A2" stroke-width="5" stroke-linecap="round" stroke-linejoin="round"/>
<path d="M122.64 87.5984L93.4402 58.3984L29.2002 122.638" stroke="#A2A2A2" stroke-width="5" stroke-linecap="round" stroke-linejoin="round"/>
</svg>
