<svg width="21" height="20" viewBox="0 0 21 20" fill="none" xmlns="http://www.w3.org/2000/svg">
<path d="M20.7945 7.10938V9.02344C20.7945 9.45496 20.4321 9.80469 19.985 9.80469C19.5379 9.80469 19.1756 9.45496 19.1756 9.02344V7.8627L11.2789 15.484C10.9628 15.7892 10.4503 15.7892 10.1343 15.484L7.45702 12.9001L4.63908 15.7005C4.48035 15.8583 4.26945 15.9375 4.05839 15.9375C3.85508 15.9375 3.65176 15.8641 3.49446 15.7167C3.17383 15.4161 3.16624 14.9216 3.4777 14.612L6.86779 11.2428C7.01878 11.0928 7.22573 11.0074 7.44248 11.0059H7.44849C7.66303 11.0059 7.86903 11.0881 8.0208 11.2347L10.7066 13.8269L18.0713 6.71875H16.7472C16.3001 6.71875 15.9377 6.36902 15.9377 5.9375C15.9377 5.50598 16.3001 5.15625 16.7472 5.15625H18.7708C19.8867 5.15625 20.7945 6.03241 20.7945 7.10938V7.10938ZM19.985 11.3672C19.5379 11.3672 19.1756 11.7169 19.1756 12.1484V16.875C19.1756 17.7365 18.4493 18.4375 17.5566 18.4375H3.31011C2.41749 18.4375 1.69119 17.7365 1.69119 16.875V6.71875H6.38607V8.32031C6.38607 8.75183 6.74843 9.10156 7.19553 9.10156C7.64263 9.10156 8.00499 8.75183 8.00499 8.32031V3.90625C8.00499 2.61383 9.09429 1.5625 10.4334 1.5625C11.7725 1.5625 12.8618 2.61383 12.8618 3.90625V5.15625H10.4739C10.0267 5.15625 9.66439 5.50598 9.66439 5.9375C9.66439 6.36902 10.0267 6.71875 10.4739 6.71875H12.8618V8.32031C12.8618 8.75183 13.2241 9.10156 13.6712 9.10156C14.1183 9.10156 14.4807 8.75183 14.4807 8.32031V3.90625C14.4807 1.75232 12.6651 0 10.4334 0C8.20167 0 6.38607 1.75232 6.38607 3.90625V5.15625H0.881727C0.434626 5.15625 0.0722656 5.50598 0.0722656 5.9375V16.875C0.0722656 18.5982 1.52471 20 3.31011 20H17.5566C19.342 20 20.7945 18.5982 20.7945 16.875V12.1484C20.7945 11.7169 20.4321 11.3672 19.985 11.3672Z" fill="#A2A2A2"/>
</svg>
