<svg width="23" height="23" viewBox="0 0 23 23" fill="none" xmlns="http://www.w3.org/2000/svg">
<path fill-rule="evenodd" clip-rule="evenodd" d="M7.462 1.00001H15.7435C15.8295 1.00001 15.915 1.00514 16 1.01541C19.371 1.23544 21.9886 3.84648 22 7.0004V16.001C21.9876 19.3219 19.0962 22.0062 15.538 22H7.462C3.90327 22.0062 1.01158 19.3211 1 15.9996V7.0004C1.01158 3.67893 3.90327 0.993814 7.462 1.00001Z" stroke="#202223" stroke-opacity="0.06" stroke-width="1.5" stroke-linecap="round" stroke-linejoin="round"/>
<path d="M21.9995 7.75062C22.4137 7.75062 22.7495 7.41483 22.7495 7.00062C22.7495 6.58641 22.4137 6.25062 21.9995 6.25062V7.75062ZM15.9995 7.00062H15.2495C15.2495 7.41483 15.5853 7.75062 15.9995 7.75062V7.00062ZM16.7495 1.01562C16.7495 0.601411 16.4137 0.265625 15.9995 0.265625C15.5853 0.265625 15.2495 0.601411 15.2495 1.01562H16.7495ZM14.4995 12.9502C14.9137 12.9502 15.2495 12.6144 15.2495 12.2002C15.2495 11.786 14.9137 11.4502 14.4995 11.4502V12.9502ZM5.49951 11.4502C5.0853 11.4502 4.74951 11.786 4.74951 12.2002C4.74951 12.6144 5.0853 12.9502 5.49951 12.9502V11.4502ZM9.99951 8.75023C10.4137 8.75023 10.7495 8.41444 10.7495 8.00023C10.7495 7.58601 10.4137 7.25023 9.99951 7.25023V8.75023ZM5.49951 7.25023C5.0853 7.25023 4.74951 7.58601 4.74951 8.00023C4.74951 8.41444 5.0853 8.75023 5.49951 8.75023V7.25023ZM15.9995 17.1502C16.4137 17.1502 16.7495 16.8144 16.7495 16.4002C16.7495 15.986 16.4137 15.6502 15.9995 15.6502V17.1502ZM5.49951 15.6502C5.0853 15.6502 4.74951 15.986 4.74951 16.4002C4.74951 16.8144 5.0853 17.1502 5.49951 17.1502V15.6502ZM21.9995 6.25062H15.9995V7.75062H21.9995V6.25062ZM16.7495 7.00062V1.01562H15.2495V7.00062H16.7495ZM14.4995 11.4502H5.49951V12.9502H14.4995V11.4502ZM9.99951 7.25023H5.49951V8.75023H9.99951V7.25023ZM15.9995 15.6502H5.49951V17.1502H15.9995V15.6502Z" fill="#202223" fill-opacity="0.06"/>
</svg>
