<svg width="21" height="24" viewBox="0 0 21 24" fill="none" xmlns="http://www.w3.org/2000/svg">
<path d="M20.1681 20.8769L18.4317 5.25H14.7801V4.6875C14.7801 2.10281 12.6773 0 10.0926 0C7.50791 0 5.4051 2.10281 5.4051 4.6875V5.25H1.75349L0.0171456 20.8769C-0.0710731 21.671 0.183974 22.4679 0.716802 23.0632C1.24963 23.6586 2.0135 24 2.81249 24H17.3728C18.1717 24 18.9355 23.6586 19.4684 23.0632C20.0013 22.4679 20.2563 21.671 20.1681 20.8769ZM7.2801 4.6875C7.2801 3.13669 8.54179 1.875 10.0926 1.875C11.6434 1.875 12.9051 3.13669 12.9051 4.6875V5.25H7.2801V4.6875ZM18.0713 21.8127C17.8911 22.0141 17.643 22.125 17.3728 22.125H2.81249C2.54225 22.125 2.29419 22.0141 2.11396 21.8127C1.93372 21.6113 1.8509 21.3525 1.88071 21.084L3.43171 7.125H5.4051V10.875H7.2801V7.125H12.9051V10.875H14.7801V7.125H16.7535L18.3045 21.084C18.3343 21.3525 18.2515 21.6113 18.0713 21.8127ZM12.1032 12.8209C11.2884 12.7913 10.6551 13.0305 10.2096 13.297C9.78482 12.9988 9.17085 12.7138 8.35574 12.684C6.72936 12.624 5.49819 13.8664 5.44246 15.392C5.41115 16.2496 5.76388 17.1284 6.46255 17.9334C7.1608 18.738 8.2093 19.4849 9.57885 20.1532L9.95254 20.3355L10.3386 20.1809C11.7532 19.6143 12.8533 18.9459 13.6085 18.1944C14.364 17.4425 14.7799 16.5918 14.8112 15.7343C14.8677 14.188 13.7107 12.8797 12.1032 12.8209ZM10.0276 18.2788C8.29058 17.3635 7.2846 16.3245 7.31619 15.4605C7.33504 14.9445 7.72025 14.5372 8.2873 14.5578C8.97571 14.583 9.3411 15.0023 9.39669 15.0714L10.0811 16.2179L10.8898 15.1271C10.9464 15.0661 11.3419 14.6695 12.0347 14.6947C12.6069 14.7156 12.9561 15.1553 12.9374 15.6658C12.9059 16.5298 11.8268 17.4926 10.0276 18.2788Z" fill="#A2A2A2"/>
</svg>
