<svg width="24" height="22" viewBox="0 0 24 22" fill="none" xmlns="http://www.w3.org/2000/svg">
	<path d="M15.0194 6.27478C15.0194 6.74928 14.6208 7.13399 14.1292 7.13399H11.0578C10.566 7.13399 10.1674 6.74928 10.1674 6.27478C10.1674 5.80028 10.566 5.41557 11.0578 5.41557H14.1292C14.6208 5.41557 15.0194 5.80028 15.0194 6.27478ZM8.81057 3.98032C8.4085 3.70706 7.85321 3.80005 7.57009 4.18811L6.29934 5.92952L5.63658 5.28348C5.29068 4.94644 4.72704 4.94359 4.37766 5.27743C4.02828 5.61128 4.0255 6.15544 4.3714 6.49264L5.37746 7.47321C5.38198 7.47757 5.38633 7.48193 5.39102 7.48613C5.64945 7.72749 5.99553 7.86177 6.35204 7.86177C6.3823 7.86177 6.41273 7.86093 6.44299 7.85892C6.83168 7.83407 7.19358 7.64995 7.43618 7.35403C7.44627 7.34145 7.45618 7.32886 7.46557 7.31576L9.02587 5.17757C9.30899 4.7895 9.21247 4.25357 8.81057 3.98032ZM14.1292 10.6163H11.0578C10.566 10.6163 10.1674 11.0008 10.1674 11.4755C10.1674 11.95 10.566 12.3347 11.0578 12.3347H14.1292C14.6208 12.3347 15.0194 11.95 15.0194 11.4755C15.0194 11.0008 14.6208 10.6163 14.1292 10.6163ZM8.81057 9.18104C8.4085 8.90779 7.85321 9.00078 7.57009 9.38884L6.29934 11.1302L5.63658 10.4842C5.29068 10.147 4.72704 10.1443 4.37766 10.4782C4.02828 10.812 4.0255 11.3562 4.3714 11.6934L5.37746 12.6739C5.38198 12.6783 5.38633 12.6827 5.39102 12.6869C5.64945 12.9282 5.99553 13.0625 6.35204 13.0625C6.3823 13.0625 6.41273 13.0617 6.44299 13.0596C6.83168 13.0348 7.19358 12.8507 7.43618 12.5548C7.44627 12.5422 7.45618 12.5296 7.46557 12.5165L9.02587 10.3783C9.30899 9.99023 9.21247 9.45413 8.81057 9.18104ZM23.3472 3.17918V5.92868C23.3472 7.82384 21.7497 9.36551 19.7862 9.36551H18.6249V14.2631C18.6249 14.7378 18.2263 15.1225 17.7347 15.1225C17.243 15.1225 16.8444 14.7378 16.8444 14.2631V3.17918C16.8444 2.6691 16.9721 2.18755 17.1968 1.76138H4.11367C3.13196 1.76138 2.3332 2.5323 2.3332 3.4798V18.6023C2.3332 19.5498 3.13196 20.3207 4.11367 20.3207H15.064C16.0457 20.3207 16.8444 19.5498 16.8444 18.6023C16.8444 18.1278 17.243 17.7431 17.7347 17.7431C18.2263 17.7431 18.6249 18.1278 18.6249 18.6023C18.6249 20.4974 17.0274 22.0391 15.064 22.0391H4.11367C2.15025 22.0391 0.552734 20.4974 0.552734 18.6023V3.4798C0.552734 1.58481 2.15025 0.0429688 4.11367 0.0429688H20.1384C20.1521 0.0429688 20.1657 0.0443115 20.1793 0.0449829C21.9335 0.0869446 23.3472 1.47621 23.3472 3.17918ZM21.5667 3.17918C21.5667 2.39735 20.9078 1.76138 20.0977 1.76138H20.0939C19.2838 1.76138 18.6249 2.39735 18.6249 3.17918V7.64709H19.7862C20.768 7.64709 21.5667 6.87617 21.5667 5.92868V3.17918ZM14.1292 15.7715H11.0578C10.566 15.7715 10.1674 16.1562 10.1674 16.6308C10.1674 17.1054 10.566 17.4901 11.0578 17.4901H14.1292C14.6208 17.4901 15.0194 17.1054 15.0194 16.6308C15.0194 16.1562 14.6208 15.7715 14.1292 15.7715ZM8.81057 14.3365C8.4085 14.0632 7.85321 14.1562 7.57009 14.5441L6.29934 16.2857L5.63658 15.6396C5.29068 15.3024 4.72704 15.2997 4.37766 15.6336C4.02828 15.9674 4.0255 16.5116 4.3714 16.8488L5.37746 17.8293C5.38198 17.8337 5.38633 17.8379 5.39102 17.8423C5.64945 18.0836 5.99553 18.2179 6.35204 18.2179C6.3823 18.2179 6.41273 18.2171 6.44299 18.2151C6.83168 18.19 7.19358 18.0061 7.43618 17.71C7.44627 17.6976 7.45618 17.6848 7.46557 17.6719L9.02587 15.5335C9.30899 15.1456 9.21247 14.6095 8.81057 14.3365Z" fill="#A2A2A2" />
</svg>
