<svg width="26" height="24" viewBox="0 0 26 24" fill="none" xmlns="http://www.w3.org/2000/svg">
<mask id="mask0_1088_10218" style="mask-type:alpha" maskUnits="userSpaceOnUse" x="0" y="0" width="24" height="24">
<rect width="24" height="24" fill="black"/>
</mask>
<g mask="url(#mask0_1088_10218)">
</g>
<g clip-path="url(#clip0_1088_10218)">
<path d="M17.0194 7.27478C17.0194 7.74928 16.6208 8.13399 16.1292 8.13399H13.0578C12.566 8.13399 12.1674 7.74928 12.1674 7.27478C12.1674 6.80028 12.566 6.41557 13.0578 6.41557H16.1292C16.6208 6.41557 17.0194 6.80028 17.0194 7.27478ZM10.8106 4.98032C10.4085 4.70706 9.85321 4.80005 9.57009 5.18811L8.29934 6.92952L7.63658 6.28348C7.29068 5.94644 6.72704 5.94359 6.37766 6.27743C6.02828 6.61128 6.0255 7.15544 6.3714 7.49264L7.37746 8.47321C7.38198 8.47757 7.38633 8.48193 7.39102 8.48613C7.64945 8.72749 7.99553 8.86177 8.35204 8.86177C8.3823 8.86177 8.41273 8.86093 8.44299 8.85892C8.83168 8.83407 9.19358 8.64995 9.43618 8.35403C9.44627 8.34145 9.45618 8.32886 9.46557 8.31576L11.0259 6.17757C11.309 5.7895 11.2125 5.25357 10.8106 4.98032ZM16.1292 11.6163H13.0578C12.566 11.6163 12.1674 12.0008 12.1674 12.4755C12.1674 12.95 12.566 13.3347 13.0578 13.3347H16.1292C16.6208 13.3347 17.0194 12.95 17.0194 12.4755C17.0194 12.0008 16.6208 11.6163 16.1292 11.6163ZM10.8106 10.181C10.4085 9.90779 9.85321 10.0008 9.57009 10.3888L8.29934 12.1302L7.63658 11.4842C7.29068 11.147 6.72704 11.1443 6.37766 11.4782C6.02828 11.812 6.0255 12.3562 6.3714 12.6934L7.37746 13.6739C7.38198 13.6783 7.38633 13.6827 7.39102 13.6869C7.64945 13.9282 7.99553 14.0625 8.35204 14.0625C8.3823 14.0625 8.41273 14.0617 8.44299 14.0596C8.83168 14.0348 9.19358 13.8507 9.43618 13.5548C9.44627 13.5422 9.45618 13.5296 9.46557 13.5165L11.0259 11.3783C11.309 10.9902 11.2125 10.4541 10.8106 10.181ZM25.3472 4.17918V6.92868C25.3472 8.82384 23.7497 10.3655 21.7862 10.3655H20.6249V15.2631C20.6249 15.7378 20.2263 16.1225 19.7347 16.1225C19.243 16.1225 18.8444 15.7378 18.8444 15.2631V4.17918C18.8444 3.6691 18.9721 3.18755 19.1968 2.76138H6.11367C5.13196 2.76138 4.3332 3.5323 4.3332 4.4798V19.6023C4.3332 20.5498 5.13196 21.3207 6.11367 21.3207H17.064C18.0457 21.3207 18.8444 20.5498 18.8444 19.6023C18.8444 19.1278 19.243 18.7431 19.7347 18.7431C20.2263 18.7431 20.6249 19.1278 20.6249 19.6023C20.6249 21.4974 19.0274 23.0391 17.064 23.0391H6.11367C4.15025 23.0391 2.55273 21.4974 2.55273 19.6023V4.4798C2.55273 2.58481 4.15025 1.04297 6.11367 1.04297H22.1384C22.1521 1.04297 22.1657 1.04431 22.1793 1.04498C23.9335 1.08694 25.3472 2.47621 25.3472 4.17918ZM23.5667 4.17918C23.5667 3.39735 22.9078 2.76138 22.0977 2.76138H22.0939C21.2838 2.76138 20.6249 3.39735 20.6249 4.17918V8.64709H21.7862C22.768 8.64709 23.5667 7.87617 23.5667 6.92868V4.17918ZM16.1292 16.7715H13.0578C12.566 16.7715 12.1674 17.1562 12.1674 17.6308C12.1674 18.1054 12.566 18.4901 13.0578 18.4901H16.1292C16.6208 18.4901 17.0194 18.1054 17.0194 17.6308C17.0194 17.1562 16.6208 16.7715 16.1292 16.7715ZM10.8106 15.3365C10.4085 15.0632 9.85321 15.1562 9.57009 15.5441L8.29934 17.2857L7.63658 16.6396C7.29068 16.3024 6.72704 16.2997 6.37766 16.6336C6.02828 16.9674 6.0255 17.5116 6.3714 17.8488L7.37746 18.8293C7.38198 18.8337 7.38633 18.8379 7.39102 18.8423C7.64945 19.0836 7.99553 19.2179 8.35204 19.2179C8.3823 19.2179 8.41273 19.2171 8.44299 19.2151C8.83168 19.19 9.19358 19.0061 9.43618 18.71C9.44627 18.6976 9.45618 18.6848 9.46557 18.6719L11.0259 16.5335C11.309 16.1456 11.2125 15.6095 10.8106 15.3365Z" fill="#28C76F"/>
</g>
<defs>
<clipPath id="clip0_1088_10218">
<rect width="22.7944" height="22" fill="white" transform="translate(2.55273 1)"/>
</clipPath>
</defs>
</svg>
