<svg width="24" height="24" viewBox="0 0 24 24" fill="none" xmlns="http://www.w3.org/2000/svg">
	<mask id="mask0_1572_19535" style="mask-type:alpha" maskUnits="userSpaceOnUse" x="0" y="0" width="24" height="24">
		<rect width="24" height="24" fill="black" />
	</mask>
	<g mask="url(#mask0_1572_19535)">
	</g>
	<g clip-path="url(#clip0_1572_19535)">
		<path d="M21.9869 17.6494C21.5259 20.1476 19.345 21.9608 16.8012 21.9608C13.8934 21.9608 11.5278 19.5951 11.5278 16.6874C11.5278 13.7796 13.8934 11.414 16.8012 11.414C17.2834 11.414 17.7615 11.4792 18.2222 11.6079C18.6378 11.7239 18.8806 12.1548 18.7646 12.5704C18.6485 12.986 18.2175 13.2288 17.802 13.1128C17.4781 13.0223 17.1413 12.9764 16.8012 12.9764C14.755 12.9764 13.0903 14.6412 13.0903 16.6873C13.0903 18.7335 14.755 20.3983 16.8012 20.3983C18.5914 20.3983 20.1261 19.123 20.4503 17.3659C20.5286 16.9416 20.9361 16.6611 21.3604 16.7394C21.7847 16.8177 22.0652 17.2252 21.9869 17.6494ZM15.7911 15.7834C15.486 15.4783 14.9913 15.4783 14.6863 15.7834C14.3812 16.0885 14.3812 16.5832 14.6863 16.8882L15.8366 18.0385C16.1027 18.3046 16.453 18.4378 16.8034 18.4378C17.1514 18.4378 17.4994 18.3064 17.7651 18.0435L21.1789 14.6645C21.4855 14.361 21.4881 13.8664 21.1845 13.5597C20.881 13.253 20.3864 13.2505 20.0797 13.554L16.804 16.7963L15.7911 15.7834ZM21.9998 4.34373V6.68746C21.9998 7.11894 21.6501 7.46871 21.2186 7.46871V10.5937C21.2186 11.0252 20.8688 11.3749 20.4374 11.3749C20.0059 11.3749 19.6561 11.0252 19.6561 10.5937V7.46871H4.34373V18.8749C4.34373 19.7364 5.04466 20.4374 5.90622 20.4374H10.8671C11.2986 20.4374 11.6484 20.7871 11.6484 21.2186C11.6484 21.6501 11.2986 21.9998 10.8671 21.9998H5.90622C4.18311 21.9998 2.78124 20.598 2.78124 18.8749V7.46871C2.34976 7.46871 2 7.11894 2 6.68746V4.34373C2 3.0514 3.0514 2 4.34373 2H19.6561C20.9484 2 21.9998 3.0514 21.9998 4.34373ZM3.56249 5.90622H20.4374V4.34373C20.4374 3.91295 20.0869 3.56249 19.6561 3.56249H4.34373C3.91295 3.56249 3.56249 3.91295 3.56249 4.34373V5.90622ZM14.4999 9.81244C14.4999 9.38096 14.1501 9.0312 13.7187 9.0312H10.2031C9.77158 9.0312 9.42182 9.38096 9.42182 9.81244C9.42182 10.2439 9.77158 10.5937 10.2031 10.5937H13.7187C14.1501 10.5937 14.4999 10.2439 14.4999 9.81244Z" fill="#28C76F" />
	</g>
	<defs>
		<clipPath id="clip0_1572_19535">
			<rect width="20" height="20" fill="white" transform="translate(2 2)" />
		</clipPath>
	</defs>
</svg>
