<svg width="20" height="20" viewBox="0 0 20 20" fill="none" xmlns="http://www.w3.org/2000/svg">
<path d="M19.9869 15.6494C19.5259 18.1476 17.345 19.9608 14.8012 19.9608C11.8934 19.9608 9.52778 17.5951 9.52778 14.6874C9.52778 11.7796 11.8934 9.41399 14.8012 9.41399C15.2834 9.41399 15.7615 9.47922 16.2222 9.60785C16.6378 9.72391 16.8806 10.1548 16.7646 10.5704C16.6485 10.986 16.2175 11.2288 15.802 11.1128C15.4781 11.0223 15.1413 10.9764 14.8012 10.9764C12.755 10.9764 11.0903 12.6412 11.0903 14.6873C11.0903 16.7335 12.755 18.3983 14.8012 18.3983C16.5914 18.3983 18.1261 17.123 18.4503 15.3659C18.5286 14.9416 18.9361 14.6611 19.3604 14.7394C19.7847 14.8177 20.0652 15.2252 19.9869 15.6494V15.6494ZM13.7911 13.7834C13.486 13.4783 12.9913 13.4783 12.6863 13.7834C12.3812 14.0885 12.3812 14.5832 12.6863 14.8882L13.8366 16.0385C14.1027 16.3046 14.453 16.4378 14.8034 16.4378C15.1514 16.4378 15.4994 16.3064 15.7651 16.0435L19.1789 12.6645C19.4855 12.361 19.4881 11.8664 19.1845 11.5597C18.881 11.253 18.3864 11.2505 18.0797 11.554L14.804 14.7963L13.7911 13.7834ZM19.9998 2.34373V4.68746C19.9998 5.11894 19.6501 5.46871 19.2186 5.46871V8.59368C19.2186 9.02516 18.8688 9.37493 18.4374 9.37493C18.0059 9.37493 17.6561 9.02516 17.6561 8.59368V5.46871H2.34373V16.8749C2.34373 17.7364 3.04466 18.4374 3.90622 18.4374H8.86712C9.2986 18.4374 9.64836 18.7871 9.64836 19.2186C9.64836 19.6501 9.2986 19.9998 8.86712 19.9998H3.90622C2.18311 19.9998 0.781244 18.598 0.781244 16.8749V5.46871C0.349763 5.46871 0 5.11894 0 4.68746V2.34373C0 1.0514 1.0514 0 2.34373 0H17.6561C18.9484 0 19.9998 1.0514 19.9998 2.34373ZM1.56249 3.90622H18.4374V2.34373C18.4374 1.91295 18.0869 1.56249 17.6561 1.56249H2.34373C1.91295 1.56249 1.56249 1.91295 1.56249 2.34373V3.90622ZM12.4999 7.81244C12.4999 7.38096 12.1501 7.0312 11.7187 7.0312H8.20306C7.77158 7.0312 7.42182 7.38096 7.42182 7.81244C7.42182 8.24392 7.77158 8.59368 8.20306 8.59368H11.7187C12.1501 8.59368 12.4999 8.24392 12.4999 7.81244Z" fill="#A2A2A2"/>
</svg>
