<svg width="18" height="18" viewBox="0 0 18 18" fill="none" xmlns="http://www.w3.org/2000/svg">
<path d="M17.2969 9.70312C17.6852 9.70312 18 9.38837 18 9C18 8.61163 17.6852 8.29688 17.2969 8.29688H9.73828V5.44922C9.73828 4.47995 8.94974 3.69141 7.98047 3.69141H7.34766C6.37839 3.69141 5.58984 4.47995 5.58984 5.44922V8.29688H4.21875V1.75781C4.21875 0.788544 3.43021 0 2.46094 0H1.75781C0.788544 0 0 0.788544 0 1.75781V9C0 9.38837 0.314758 9.70312 0.703125 9.70312H8.33203V12.7266C8.33203 13.6958 9.12057 14.4844 10.0898 14.4844H10.7227C11.6919 14.4844 12.4805 13.6958 12.4805 12.7266V9.70312H13.8516V16.2422C13.8516 17.2115 14.6401 18 15.6094 18H16.2422C17.2115 18 18 17.2115 18 16.2422V12.5156C18 12.1273 17.6852 11.8125 17.2969 11.8125C16.9085 11.8125 16.5938 12.1273 16.5938 12.5156V16.2422C16.5938 16.4361 16.4361 16.5938 16.2422 16.5938H15.6094C15.4155 16.5938 15.2578 16.4361 15.2578 16.2422V9.70312H17.2969ZM6.99609 5.44922C6.99609 5.25531 7.15375 5.09766 7.34766 5.09766H7.98047C8.17438 5.09766 8.33203 5.25531 8.33203 5.44922V8.29688H6.99609V5.44922ZM1.75781 1.40625H2.46094C2.65485 1.40625 2.8125 1.5639 2.8125 1.75781V8.29688H1.40625V1.75781C1.40625 1.5639 1.5639 1.40625 1.75781 1.40625ZM11.0742 12.7266C11.0742 12.9205 10.9166 13.0781 10.7227 13.0781H10.0898C9.89594 13.0781 9.73828 12.9205 9.73828 12.7266V9.70312H11.0742V12.7266ZM12.0234 2.98828C12.0234 2.59991 12.3382 2.28516 12.7266 2.28516H14.3086V0.703125C14.3086 0.314758 14.6234 0 15.0117 0C15.4001 0 15.7148 0.314758 15.7148 0.703125V2.28516H17.2969C17.6852 2.28516 18 2.59991 18 2.98828C18 3.37665 17.6852 3.69141 17.2969 3.69141H15.7148V5.27344C15.7148 5.6618 15.4001 5.97656 15.0117 5.97656C14.6234 5.97656 14.3086 5.6618 14.3086 5.27344V3.69141H12.7266C12.3382 3.69141 12.0234 3.37665 12.0234 2.98828ZM5.97656 16.2422C5.97656 16.6306 5.6618 16.9453 5.27344 16.9453H0.703125C0.314758 16.9453 0 16.6306 0 16.2422C0 15.8538 0.314758 15.5391 0.703125 15.5391H5.27344C5.6618 15.5391 5.97656 15.8538 5.97656 16.2422Z" fill="#A2A2A2"/>
</svg>
