<svg width="22" height="21" viewBox="0 0 22 21" fill="none" xmlns="http://www.w3.org/2000/svg">
<path d="M21.3549 12.1691L20.4497 11.45C19.8297 10.9573 19.8308 10.0417 20.4498 9.55004L21.3549 8.83087C21.999 8.31903 22.1638 7.44138 21.7466 6.74391L19.9593 3.75609C19.5421 3.05866 18.672 2.7576 17.8908 3.04004L16.7929 3.43703C16.0409 3.70888 15.2199 3.25037 15.0881 2.48706L14.8953 1.37087C14.7582 0.576557 14.053 0 13.2186 0H9.64402C8.8096 0 8.10441 0.576557 7.96727 1.37091L7.77451 2.48706C7.64247 3.25172 6.82033 3.70843 6.06971 3.43707L4.9718 3.04004C4.19058 2.7576 3.32059 3.0587 2.90332 3.75609L1.11603 6.74387C0.69884 7.44126 0.863557 8.31895 1.50777 8.83083L2.4129 9.55C3.03302 10.0427 3.03178 10.9582 2.4129 11.4499L1.50772 12.1691C0.863557 12.681 0.698797 13.5587 1.11599 14.256L2.90332 17.2439C3.32055 17.9413 4.19037 18.2424 4.9718 17.9599L6.06966 17.5629C6.82181 17.291 7.64268 17.7498 7.77446 18.5129L7.96723 19.629C8.10441 20.4234 8.8096 21 9.64398 21H13.2186C14.053 21 14.7582 20.4234 14.8953 19.6291L15.088 18.513C15.22 17.7485 16.0421 17.2915 16.7929 17.563L17.8908 17.96C18.6722 18.2424 19.5421 17.9413 19.9593 17.2439L21.7467 14.256C22.1638 13.5587 21.999 12.681 21.3549 12.1691ZM18.4872 16.4236L17.3893 16.0266C15.6342 15.3921 13.7188 16.4626 13.4114 18.2432L13.2186 19.3594H9.64402L9.45126 18.2432C9.1432 16.4592 7.22502 15.3933 5.47335 16.0266L4.37545 16.4236L2.58816 13.4358L3.4933 12.7166C4.94027 11.5669 4.93725 9.43068 3.4933 8.28339L2.58816 7.56422L4.37549 4.5764L5.47335 4.97339C7.22846 5.6079 9.14379 4.53739 9.45126 2.75678L9.64398 1.64062H13.2186L13.4113 2.75678C13.7194 4.54104 15.6377 5.60659 17.3892 4.97339L18.4871 4.5764L20.2748 7.56381C20.2748 7.56381 20.2747 7.56394 20.2744 7.56418L19.3693 8.28335C17.9223 9.43294 17.9252 11.5692 19.3692 12.7166L20.2744 13.4357L18.4872 16.4236ZM11.4313 6.45311C9.11927 6.45311 7.23828 8.26855 7.23828 10.5C7.23828 12.7315 9.11927 14.5469 11.4313 14.5469C13.7433 14.5469 15.6243 12.7315 15.6243 10.5C15.6243 8.26855 13.7433 6.45311 11.4313 6.45311ZM11.4313 12.9063C10.0566 12.9063 8.93815 11.8268 8.93815 10.5C8.93815 9.17319 10.0566 8.09374 11.4313 8.09374C12.806 8.09374 13.9245 9.17319 13.9245 10.5C13.9245 11.8268 12.806 12.9063 11.4313 12.9063Z" fill="#A2A2A2"/>
</svg>
