<svg width="170" height="129" viewBox="0 0 170 129" fill="none" xmlns="http://www.w3.org/2000/svg">
<path d="M141.154 110.89C141.95 115.984 138.559 120.748 133.572 121.527C128.585 122.307 123.898 118.809 123.102 113.715C122.306 108.622 125.7 103.855 130.687 103.075C135.671 102.296 140.358 105.794 141.154 110.89Z" fill="#1B77F2"/>
<path d="M97.2197 117.763C98.0158 122.856 94.6246 127.62 89.6378 128.399C84.6509 129.179 79.9639 125.681 79.1678 120.587C78.3716 115.494 81.7661 110.727 86.7529 109.948C91.7365 109.168 96.4235 112.666 97.2197 117.763Z" fill="#1B77F2"/>
<path d="M153.453 24.7254C150.815 22.1137 146.968 20.9811 142.893 21.6207L50.2521 36.1115C47.9802 36.468 45.9548 37.3407 44.2992 38.6033L36.714 22.4202C36.0744 21.0577 34.8085 20.0983 33.3228 19.8551L5.30389 15.258C2.81546 14.8483 0.470286 16.5372 0.0605454 19.0223C-0.345864 21.5107 1.33642 23.8559 3.82484 24.2624L29.4719 28.4697L36.8239 44.1531L59.5029 91.5497L62.461 97.8358C65.7889 104.638 74.2536 109.052 81.7355 107.879L142.324 98.4021C144.812 98.0123 146.514 95.6804 146.128 93.1887C145.738 90.7003 143.403 88.998 140.915 89.3844L80.3264 98.8618C77.0618 99.3714 72.8711 97.3128 71.0723 94.5012C72.6546 94.7111 74.2469 94.721 75.7992 94.4779L136.384 85.0005C143.863 83.8313 150.579 77.0456 151.671 69.5503C151.671 69.5503 151.671 69.5503 151.671 69.547L156.665 35.2421C157.264 31.1746 156.092 27.3371 153.453 24.7254ZM90.903 56.3187L88.258 39.3994L107.542 36.3847L110.188 53.304L90.903 56.3187ZM92.3121 65.3363L111.597 62.3216L114.242 79.2409L94.9571 82.2556L92.3121 65.3363ZM49.2361 46.5083C49.6025 45.8054 50.4653 45.3124 51.6612 45.1258L79.2404 40.8119L81.8854 57.7311L55.6287 61.8385L49.4926 49.2898C48.9596 48.2005 48.8696 47.2111 49.2361 46.5083ZM64.7229 80.4334L59.826 70.4164L83.2978 66.7454L85.9428 83.6647L74.3901 85.4702C70.8924 86.0165 66.2819 83.6147 64.7229 80.4334ZM134.978 75.9929L123.259 77.8251L120.614 60.9058L144.256 57.2081L142.65 68.2411C142.134 71.7523 138.48 75.4466 134.978 75.9929ZM147.64 33.9362L145.628 47.7575L119.202 51.8915L116.557 34.9722L144.303 30.6316C145.498 30.4451 146.471 30.6483 147.034 31.2079C147.6 31.7709 147.817 32.737 147.64 33.9362Z" fill="#1B77F2"/>
<path d="M102.629 39.0026C105.51 57.4342 122.789 70.0396 141.224 67.1547C159.653 64.2732 172.261 46.9942 169.376 28.5625C166.495 10.1308 149.212 -2.47118 130.784 0.410327C112.349 3.29184 99.7438 20.5709 102.629 39.0026Z" fill="white"/>
<path d="M108.267 38.12C110.662 53.4369 125.023 63.9103 140.336 61.5152C155.65 59.12 166.127 44.7624 163.731 29.4455C161.336 14.1285 146.975 3.65845 131.662 6.0536C116.348 8.44875 105.871 22.8063 108.267 38.12Z" fill="#FF0100"/>
<path d="M143.936 22.1251L130.466 47.9256" stroke="white" stroke-width="5" stroke-linecap="round" stroke-linejoin="round"/>
<path d="M124.301 28.2905L150.101 41.7601" stroke="white" stroke-width="5" stroke-linecap="round" stroke-linejoin="round"/>
</svg>
