<?xml version="1.0" standalone="no"?>
<!DOCTYPE svg PUBLIC "-//W3C//DTD SVG 20010904//EN"
 "http://www.w3.org/TR/2001/REC-SVG-20010904/DTD/svg10.dtd">
<svg version="1.0" xmlns="http://www.w3.org/2000/svg"
 width="128.000000pt" height="128.000000pt" viewBox="0 0 128.000000 128.000000"
 preserveAspectRatio="xMidYMid meet">

<g transform="translate(0.000000,128.000000) scale(0.100000,-0.100000)"
fill="#000000" stroke="none">
<path d="M425 1121 c-49 -23 -89 -64 -109 -113 -23 -54 -21 -191 3 -243 76
-164 296 -164 372 0 13 29 19 63 19 125 0 62 -6 96 -19 125 -49 105 -167 152
-266 106z m155 -43 c64 -32 90 -87 90 -188 0 -101 -26 -156 -90 -187 -56 -29
-94 -29 -150 0 -64 31 -90 86 -90 187 0 101 26 156 90 188 24 12 58 22 75 22
17 0 51 -10 75 -22z"/>
<path d="M702 648 c-17 -17 -17 -499 0 -516 17 -17 309 -17 326 0 8 8 12 45
12 100 0 81 -2 88 -20 88 -18 0 -20 -7 -20 -80 l0 -80 -135 0 -135 0 0 230 0
230 135 0 135 0 0 -80 c0 -73 2 -80 20 -80 18 0 20 7 20 88 0 55 -4 92 -12
100 -17 17 -309 17 -326 0z"/>
<path d="M362 595 c-128 -28 -228 -93 -263 -170 -13 -28 -19 -64 -19 -123 0
-74 2 -83 18 -80 14 3 18 18 22 90 6 97 17 120 89 175 72 56 164 78 319 77
115 0 132 2 130 15 -6 31 -182 40 -296 16z"/>
<path d="M1075 489 c-4 -6 7 -28 24 -50 l32 -39 -121 0 c-113 0 -120 -1 -120
-20 0 -19 7 -20 120 -20 l121 0 -32 -40 c-26 -32 -30 -43 -20 -53 10 -10 24 0
67 46 30 32 54 62 54 67 0 11 -100 120 -110 120 -5 0 -12 -5 -15 -11z"/>
</g>
</svg>
