<svg width="22" height="21" viewBox="0 0 22 21" fill="none" xmlns="http://www.w3.org/2000/svg">
<path d="M11.7643 8.4762V10.1063C11.7643 10.5594 11.3837 10.9266 10.9143 10.9266C10.4449 10.9266 10.0644 10.5594 10.0644 10.1063V8.4762C10.0644 8.02314 10.4449 7.65588 10.9143 7.65588C11.3837 7.65588 11.7643 8.02318 11.7643 8.4762ZM11.76 5.85501C11.7274 5.51909 11.4708 5.23096 11.1343 5.1438C10.7901 5.05459 10.4109 5.18884 10.2115 5.47492C10.0142 5.75797 10.0185 6.13507 10.2233 6.41336C10.4317 6.69649 10.8177 6.8213 11.1612 6.72044C11.5423 6.60855 11.8022 6.23925 11.76 5.85501ZM21.7935 12.1335V13.8507C21.7935 14.8765 20.9288 15.7111 19.8659 15.7111H18.921V16.3713C18.921 18.1354 17.434 19.5706 15.6062 19.5706H13.0691C12.7296 20.3977 11.8924 20.9843 10.916 20.9843C9.63963 20.9843 8.60127 19.9821 8.60127 18.7502C8.60127 17.5184 9.63968 16.5162 10.916 16.5162C11.8924 16.5162 12.7296 17.1027 13.0691 17.9299H15.6062C16.4585 17.9299 17.1587 17.2894 17.2171 16.4808H16.136C14.8651 16.4808 13.8311 15.4829 13.8311 14.2563V11.728C13.8311 10.5013 14.8651 9.50339 16.136 9.50339H18.071C18.5228 9.50339 18.8922 9.84362 18.9193 10.2731H19.8658C20.9288 10.2731 21.7935 11.1077 21.7935 12.1335ZM11.5308 18.7503C11.5308 18.423 11.255 18.1568 10.916 18.1568C10.5769 18.1568 10.3011 18.423 10.3011 18.7503C10.3011 19.0775 10.5769 19.3437 10.916 19.3437C11.255 19.3437 11.5308 19.0775 11.5308 18.7503ZM16.1361 14.8403H17.2211V11.1441H16.1361C15.8024 11.1441 15.531 11.406 15.531 11.728V14.2563C15.531 14.5783 15.8024 14.8403 16.1361 14.8403ZM20.0936 12.1335C20.0936 12.0123 19.9915 11.9138 19.8659 11.9138H18.921V14.0705H19.8659C19.9915 14.0705 20.0936 13.9719 20.0936 13.8507V12.1335ZM7.99747 11.728V14.2563C7.99747 15.4829 6.96349 16.4809 5.69258 16.4809H3.75762C3.30579 16.4809 2.93632 16.1406 2.9093 15.7111H1.96277C0.89988 15.7111 0.0351562 14.8765 0.0351562 13.8507V12.1336C0.0351562 11.1077 0.89988 10.2732 1.96277 10.2732H2.9093C2.90976 10.2657 2.91036 10.2582 2.911 10.2508V7.72984C2.911 3.47676 6.50201 0.0166016 10.916 0.0166016C12.7464 0.0166016 14.536 0.627365 15.9551 1.73639C17.3536 2.82929 18.3387 4.35884 18.7288 6.04323C18.8312 6.48538 18.5429 6.92392 18.0848 7.02277C17.6266 7.12161 17.1723 6.84328 17.0699 6.40118C16.4332 3.65231 13.8452 1.65723 10.916 1.65723C7.43932 1.65723 4.61087 4.3814 4.61087 7.72984V9.50343H5.69258C6.96353 9.50339 7.99747 10.5013 7.99747 11.728ZM1.96277 14.0705H2.90768V11.9138H1.96277C1.83719 11.9138 1.73503 12.0123 1.73503 12.1335V13.8507C1.73503 13.9719 1.83719 14.0705 1.96277 14.0705ZM6.2976 11.728C6.2976 11.406 6.02618 11.1441 5.69258 11.1441H4.61087V13.9749C4.61087 13.9995 4.60976 14.0238 4.60755 14.0478V14.8403H5.69258C6.02622 14.8403 6.2976 14.5783 6.2976 14.2564V11.728Z" fill="#A2A2A2"/>
</svg>
