<svg width="27" height="28" viewBox="0 0 27 28" fill="none" xmlns="http://www.w3.org/2000/svg">
<mask id="mask0_689_2122" style="mask-type:alpha" maskUnits="userSpaceOnUse" x="0" y="0" width="27" height="28">
<rect y="0.5" width="27" height="27" fill="#D9D9D9"/>
</mask>
<g mask="url(#mask0_689_2122)">
<path d="M0.222646 15.1135L4.76039 10.4992C4.90936 10.3477 5.1145 10.2622 5.32876 10.2622L8.22846 10.2622L8.22846 6.90348C8.22846 6.47355 8.58263 6.125 9.01948 6.125L23.7115 6.125C24.1484 6.125 24.5026 6.47355 24.5026 6.90348L24.5026 9.23964L25.1013 9.23964C25.5382 9.23964 25.8923 9.58819 25.8923 10.0181C25.8923 10.4481 25.5382 10.7966 25.1013 10.7966L24.5026 10.7966L24.5026 12.3543L26.209 12.3543C26.6458 12.3543 27 12.7028 27 13.1328C27 13.5627 26.6458 13.9112 26.209 13.9112L24.5026 13.9112L24.5026 21.0606C24.5026 21.4906 24.1484 21.8391 23.7115 21.8391L22.0278 21.8391C21.8744 22.3415 21.5964 22.8018 21.2089 23.1832C20.5918 23.7906 19.7713 24.125 18.8986 24.125C18.0259 24.125 17.2054 23.7906 16.5883 23.1832C16.1962 22.7973 15.9252 22.3367 15.7745 21.8477L8.22055 21.8477C8.06984 22.3367 7.79889 22.7973 7.40676 23.1832C6.78966 23.7906 5.96917 24.125 5.09646 24.125C4.22376 24.125 3.40332 23.7906 2.78617 23.1832C2.39404 22.7973 2.12309 22.3367 1.97238 21.8477L0.791019 21.8477C0.354167 21.8477 3.2514e-06 21.4991 3.21381e-06 21.0692L2.74048e-06 15.6549C2.72281e-06 15.4528 0.0798424 15.2587 0.222646 15.1135ZM2.65739 14.8764L8.25066 14.8764L8.25066 11.8191L5.66399 11.8191L2.65739 14.8764ZM22.9205 13.9112L18.8034 13.9112C18.3665 13.9112 18.0124 13.5626 18.0124 13.1327C18.0124 12.7028 18.3665 12.3542 18.8034 12.3542L22.9205 12.3542L22.9205 10.7966L18.2232 10.7966C17.7863 10.7966 17.4321 10.448 17.4321 10.0181C17.4321 9.58814 17.7863 9.23959 18.2232 9.23959L22.9205 9.23959L22.9205 7.68191L18.2232 7.68191L9.81055 7.68191L9.83275 20.2906L15.6935 20.2906C15.8135 19.6838 16.1117 19.1047 16.5883 18.6356C17.2054 18.0283 18.0259 17.6938 18.8986 17.6938C19.7713 17.6938 20.5917 18.0283 21.2089 18.6356C21.6729 19.0923 21.9801 19.6622 22.104 20.2821L22.9205 20.2821L22.9205 13.9112ZM17.7069 22.0823C18.0252 22.3955 18.4485 22.568 18.8986 22.568C19.3487 22.568 19.7719 22.3955 20.0902 22.0823C20.4085 21.769 20.5838 21.3525 20.5838 20.9095C20.5838 20.4664 20.4085 20.0499 20.0902 19.7366C19.7719 19.4233 19.3487 19.2508 18.8986 19.2508C18.4485 19.2508 18.0252 19.4233 17.7069 19.7366C17.0499 20.3833 17.0499 21.4356 17.7069 22.0823ZM3.90493 22.0823C4.22324 22.3955 4.64648 22.568 5.09657 22.568C5.54666 22.568 5.9699 22.3955 6.28821 22.0823C6.94528 21.4356 6.94528 20.3834 6.28821 19.7367C5.9699 19.4234 5.54666 19.2509 5.09657 19.2509C4.64648 19.2509 4.22324 19.4234 3.90493 19.7367C3.58663 20.0499 3.41139 20.4665 3.41139 20.9095C3.41134 21.3525 3.58663 21.769 3.90493 22.0823ZM1.89148 20.2907C2.01145 19.6839 2.30966 19.1047 2.78628 18.6357C3.40337 18.0283 4.22387 17.6939 5.09657 17.6939C5.96927 17.6939 6.78971 18.0283 7.40686 18.6357C7.82705 19.0493 8.10775 19.5485 8.25072 20.0767L8.25072 16.4334L1.58203 16.4334L1.58203 20.2907L1.89148 20.2907Z" fill="#28C76F"/>
</g>
</svg>
