<svg width="32" height="32" viewBox="0 0 32 32" fill="none" xmlns="http://www.w3.org/2000/svg">
<mask id="mask0_1122_7722" style="mask-type:alpha" maskUnits="userSpaceOnUse" x="0" y="0" width="32" height="32">
<rect width="32" height="32" fill="#D9D9D9"/>
</mask>
<g mask="url(#mask0_1122_7722)">
<path d="M15.9993 22.667C16.3771 22.667 16.694 22.539 16.95 22.283C17.2051 22.0279 17.3327 21.7114 17.3327 21.3337C17.3327 20.9559 17.2051 20.639 16.95 20.383C16.694 20.1279 16.3771 20.0003 15.9993 20.0003C15.6216 20.0003 15.3051 20.1279 15.05 20.383C14.794 20.639 14.666 20.9559 14.666 21.3337C14.666 21.7114 14.794 22.0279 15.05 22.283C15.3051 22.539 15.6216 22.667 15.9993 22.667ZM14.666 17.3337H17.3327V9.33366H14.666V17.3337ZM15.9993 29.3337C14.1549 29.3337 12.4216 28.9834 10.7993 28.283C9.17713 27.5834 7.76602 26.6337 6.56602 25.4337C5.36602 24.2337 4.41624 22.8225 3.71668 21.2003C3.01624 19.5781 2.66602 17.8448 2.66602 16.0003C2.66602 14.1559 3.01624 12.4225 3.71668 10.8003C4.41624 9.1781 5.36602 7.76699 6.56602 6.56699C7.76602 5.36699 9.17713 4.41677 10.7993 3.71633C12.4216 3.01677 14.1549 2.66699 15.9993 2.66699C17.8438 2.66699 19.5771 3.01677 21.1993 3.71633C22.8216 4.41677 24.2327 5.36699 25.4327 6.56699C26.6327 7.76699 27.5825 9.1781 28.282 10.8003C28.9825 12.4225 29.3327 14.1559 29.3327 16.0003C29.3327 17.8448 28.9825 19.5781 28.282 21.2003C27.5825 22.8225 26.6327 24.2337 25.4327 25.4337C24.2327 26.6337 22.8216 27.5834 21.1993 28.283C19.5771 28.9834 17.8438 29.3337 15.9993 29.3337ZM15.9993 26.667C18.9771 26.667 21.4993 25.6337 23.566 23.567C25.6327 21.5003 26.666 18.9781 26.666 16.0003C26.666 13.0225 25.6327 10.5003 23.566 8.43366C21.4993 6.36699 18.9771 5.33366 15.9993 5.33366C13.0216 5.33366 10.4993 6.36699 8.43268 8.43366C6.36602 10.5003 5.33268 13.0225 5.33268 16.0003C5.33268 18.9781 6.36602 21.5003 8.43268 23.567C10.4993 25.6337 13.0216 26.667 15.9993 26.667Z" fill="#FF0000"/>
</g>
</svg>
