<svg width="131" height="40" viewBox="0 0 131 40" fill="none" xmlns="http://www.w3.org/2000/svg">
	<path d="M30.4634 6.24124V0L22.5625 2.38615V6.24124H30.4634Z" fill="white" />
	<path d="M37.382 8.57031H32.8594V16.1624H37.382V8.57031Z" fill="white" />
	<path d="M33.5853 32.0558C32.5636 31.9945 31.7894 31.7175 31.2582 31.2293C31.2468 31.218 31.2377 31.2067 31.2264 31.1953C30.0276 33.7699 28.225 36.0085 26 37.7249C28.2386 39.3005 32.0301 39.7909 37.3814 39.1893V32.024C35.8716 32.108 34.6047 32.1171 33.5853 32.0558Z" fill="white" />
	<path d="M15.2887 8.52344C6.84517 8.52344 0 15.3686 0 23.8121C0 32.2556 6.84517 39.1008 15.2887 39.1008C23.7322 39.1008 30.5773 32.2556 30.5773 23.8121V8.52344H15.2887ZM25.5576 23.8121C25.5576 29.4835 20.9601 34.081 15.2887 34.081C9.61729 34.081 5.01979 29.4835 5.01979 23.8121C5.01979 18.1407 9.61729 13.5432 15.2887 13.5432H25.5576V23.8121Z" fill="white" />
	<path d="M43.1815 35.468C40.423 32.7095 39.0449 29.3879 39.0449 25.4988C39.0449 21.6278 40.423 18.3131 43.1815 15.5546C45.94 12.7961 49.2616 11.418 53.1507 11.418C57.0217 11.418 60.3365 12.7983 63.095 15.5546C65.8535 18.3131 67.2316 21.6278 67.2316 25.4988C67.2316 29.3857 65.8512 32.7095 63.095 35.468C60.3365 38.2265 57.0217 39.6046 53.1507 39.6046C49.2616 39.6046 45.94 38.2265 43.1815 35.468ZM47.2932 19.6435C45.6653 21.2714 44.8503 23.2239 44.8503 25.4988C44.8503 27.7919 45.6631 29.7512 47.2932 31.3791C48.9051 32.991 50.8577 33.797 53.1485 33.797C55.4415 33.797 57.3941 32.991 59.0038 31.3791C60.6157 29.7512 61.4217 27.7896 61.4217 25.4988C61.4217 23.2057 60.6157 21.2532 59.0038 19.6435C57.3918 18.0316 55.4393 17.2256 53.1485 17.2256C50.8577 17.2278 48.9051 18.0338 47.2932 19.6435Z" fill="white" />
	<path d="M72.6097 11.7441H78.4173V28.0931C78.4173 29.671 78.9735 31.0173 80.086 32.1298C81.1985 33.2423 82.5448 33.7985 84.1227 33.7985C85.7006 33.7985 87.047 33.2423 88.1595 32.1298C89.2719 31.0173 89.8282 29.671 89.8282 28.0931V11.7441H95.6358V39.2565H89.8282V38.1349C88.2162 39.0976 86.3136 39.588 84.1205 39.6061C80.9646 39.6061 78.2561 38.4755 75.9971 36.2165C73.7381 33.9575 72.6074 31.2489 72.6074 28.0931V11.7441H72.6097Z" fill="white" />
	<path d="M130.999 25.5008C130.999 29.3718 129.619 32.6865 126.863 35.445C124.104 38.2194 120.789 39.6066 116.918 39.6066C112.997 39.6066 110.232 38.7847 108.62 37.1387V39.257H102.812V0.181641H108.62V13.8379C110.248 12.2101 113.016 11.395 116.918 11.395C120.789 11.395 124.104 12.7754 126.863 15.5316C129.619 18.2901 130.999 21.6117 130.999 25.5008ZM125.192 25.5507C125.192 23.2577 124.376 21.2983 122.749 19.6705C121.121 18.0426 119.159 17.2276 116.868 17.2276C114.575 17.2276 112.616 18.0426 110.988 19.6705C109.376 21.2825 108.57 23.2418 108.57 25.5507C108.57 27.8438 109.376 29.8031 110.988 31.431C112.616 33.043 114.578 33.849 116.868 33.849C119.177 33.849 121.139 33.043 122.749 31.431C124.379 29.8031 125.192 27.8438 125.192 25.5507Z" fill="white" />
</svg>
