<svg width="131" height="40" viewBox="0 0 131 40" fill="none" xmlns="http://www.w3.org/2000/svg">
<path d="M30.4634 6.24124V0L22.5625 2.38615V6.24124H30.4634Z" fill="#1B77F2"/>
<path d="M37.381 8.57031H32.8584V16.1624H37.381V8.57031Z" fill="#1B77F2"/>
<path d="M33.5853 32.0558C32.5636 31.9945 31.7894 31.7175 31.2582 31.2293C31.2468 31.218 31.2377 31.2067 31.2264 31.1953C30.0276 33.7699 28.225 36.0085 26 37.7249C28.2386 39.3005 32.0301 39.7909 37.3814 39.1893V32.024C35.8716 32.108 34.6047 32.1171 33.5853 32.0558Z" fill="#1B77F2"/>
<path d="M15.2887 8.52344C6.84517 8.52344 0 15.3686 0 23.8121C0 32.2556 6.84517 39.1008 15.2887 39.1008C23.7322 39.1008 30.5773 32.2556 30.5773 23.8121V8.52344H15.2887ZM25.5576 23.8121C25.5576 29.4835 20.9601 34.081 15.2887 34.081C9.61729 34.081 5.01979 29.4835 5.01979 23.8121C5.01979 18.1407 9.61729 13.5432 15.2887 13.5432H25.5576V23.8121Z" fill="#28C76F"/>
<path d="M43.1806 35.468C40.4221 32.7095 39.0439 29.3879 39.0439 25.4988C39.0439 21.6278 40.4221 18.3131 43.1806 15.5546C45.9391 12.7961 49.2606 11.418 53.1498 11.418C57.0207 11.418 60.3355 12.7983 63.094 15.5546C65.8525 18.3131 67.2306 21.6278 67.2306 25.4988C67.2306 29.3857 65.8502 32.7095 63.094 35.468C60.3355 38.2265 57.0207 39.6046 53.1498 39.6046C49.2606 39.6046 45.9391 38.2265 43.1806 35.468ZM47.2922 19.6435C45.6643 21.2714 44.8493 23.2239 44.8493 25.4988C44.8493 27.7919 45.6621 29.7512 47.2922 31.3791C48.9042 32.991 50.8567 33.797 53.1475 33.797C55.4406 33.797 57.3931 32.991 59.0028 31.3791C60.6147 29.7512 61.4207 27.7896 61.4207 25.4988C61.4207 23.2057 60.6147 21.2532 59.0028 19.6435C57.3908 18.0316 55.4383 17.2256 53.1475 17.2256C50.8567 17.2278 48.9042 18.0338 47.2922 19.6435Z" fill="#1B77F2"/>
<path d="M72.6106 11.7451H78.4183V28.0941C78.4183 29.672 78.9745 31.0183 80.087 32.1308C81.1995 33.2433 82.5458 33.7995 84.1237 33.7995C85.7016 33.7995 87.048 33.2433 88.1604 32.1308C89.2729 31.0183 89.8292 29.672 89.8292 28.0941V11.7451H95.6367V39.2574H89.8292V38.1359C88.2172 39.0985 86.3146 39.5889 84.1214 39.6071C80.9656 39.6071 78.2571 38.4765 75.998 36.2174C73.739 33.9584 72.6084 31.2499 72.6084 28.0941V11.7451H72.6106Z" fill="#1B77F2"/>
<path d="M130.999 25.5008C130.999 29.3718 129.619 32.6865 126.863 35.445C124.104 38.2194 120.789 39.6066 116.918 39.6066C112.997 39.6066 110.232 38.7847 108.62 37.1387V39.257H102.812V0.181641H108.62V13.8379C110.248 12.2101 113.016 11.395 116.918 11.395C120.789 11.395 124.104 12.7754 126.863 15.5316C129.619 18.2901 130.999 21.6117 130.999 25.5008ZM125.192 25.5507C125.192 23.2577 124.376 21.2983 122.749 19.6705C121.121 18.0426 119.159 17.2276 116.868 17.2276C114.575 17.2276 112.616 18.0426 110.988 19.6705C109.376 21.2825 108.57 23.2418 108.57 25.5507C108.57 27.8438 109.376 29.8031 110.988 31.431C112.616 33.043 114.578 33.849 116.868 33.849C119.177 33.849 121.139 33.043 122.749 31.431C124.379 29.8031 125.192 27.8438 125.192 25.5507Z" fill="#1B77F2"/>
</svg>
